<svg width="1080" height="1080" viewBox="0 0 1080 1080" fill="none" xmlns="http://www.w3.org/2000/svg">
<rect x="6" y="6" width="1068" height="1068" rx="122" stroke="#118080" stroke-width="12"/>
<mask id="path-2-inside-1_0_1" fill="white">
<path d="M455.558 617.483C436.594 622.167 418.04 626.831 399.407 631.155C395.999 631.946 395.008 634.048 393.912 636.693C371.643 690.446 349.295 744.166 327.154 797.971C325.622 801.694 323.87 802.879 319.91 802.819C303.784 802.574 287.652 802.717 270.606 802.717C300.155 747.838 329.363 693.594 358.966 638.614C348.639 639.592 339.093 640.412 329.566 641.421C319.828 642.452 310.26 641.834 300.917 638.828C290.634 635.518 287.432 626.528 294.277 618.157C298.309 613.227 303.503 608.99 308.832 605.426C332.738 589.441 359.725 580.169 386.675 571.064C394.491 568.424 399.28 564.302 403.15 556.988C427.422 511.121 452.211 465.527 476.82 419.837C477.583 418.42 478.247 416.95 479.176 415.057C477.931 414.906 477.176 414.733 476.422 414.733C402.423 414.761 328.424 414.685 254.427 415.009C246.235 415.045 237.892 416.741 229.902 418.778C214.841 422.618 207.162 433.828 203.946 448.179C201.701 458.202 200.571 468.476 198.879 479.035C197.338 479.035 195.435 479.035 193 479.035C194.509 434.315 196.012 389.762 197.532 344.695C199.721 344.695 201.51 344.695 203.299 344.695C230.798 344.695 258.298 344.728 285.797 344.634C288.029 344.626 290.617 344.321 292.433 343.185C325.899 322.248 362.857 310.259 400.835 301.083C472.434 283.782 545.118 275.618 618.764 277.191C659.144 278.053 699.336 281.699 738.062 294.097C752.242 298.637 765.986 304.852 779.398 311.392C792.722 317.889 803.557 327.824 812.486 339.776C827.957 360.483 829.925 382.708 820.195 406.276C812.361 425.25 799.288 440.588 785.641 455.491C781.253 460.283 776.609 464.84 772.184 469.599C770.694 471.202 769.521 473.099 768.204 474.862C768.453 475.356 768.703 475.85 768.952 476.344C771.792 476.105 774.663 476.053 777.468 475.599C836.618 466.019 896.237 461.782 956.061 459.933C960.349 459.801 964.756 460.06 968.919 460.985C970.647 461.369 971.881 463.981 973.339 465.579C971.487 466.636 969.615 468.651 967.786 468.612C907.755 467.344 848.425 474.883 789.114 482.632C777.893 484.098 766.666 485.675 755.564 487.827C750.943 488.723 746.161 490.545 742.264 493.157C674.943 538.289 601.02 569.393 524.897 595.858C518.929 597.933 512.919 599.9 506.874 601.738C499.965 603.838 494.902 608.026 491.5 614.371C459.184 674.642 426.878 734.919 394.408 795.107C393.151 797.438 390.529 799.978 388.103 800.549C381.834 802.025 379.009 798.68 380.617 792.347C381.261 789.807 382.34 787.32 383.573 784.995C411.478 732.371 439.446 679.781 467.348 627.156C469.503 623.093 471.262 618.82 473.204 614.644C472.906 614.117 472.607 613.589 472.309 613.061C466.853 614.49 461.397 615.919 455.558 617.483ZM457.883 482.514C447.704 507.109 437.525 531.704 426.995 557.146C437.813 553.841 447.45 550.775 457.159 547.959C471.371 543.836 485.649 539.943 499.87 535.85C507.083 533.774 512.72 529.682 515.776 522.551C533.789 480.507 551.376 438.296 565.682 394.802C566.665 391.812 567.825 388.847 569.231 386.035C571.413 381.672 575.542 382.138 579.304 382.814C583.106 383.498 584.309 386.546 583.794 390.029C583.116 394.61 582.673 399.368 581.06 403.647C567.279 440.204 553.256 476.67 539.306 513.163C538.417 515.489 537.388 517.774 536.683 520.155C535.729 523.375 536.765 525.099 540.409 524.24C542.999 523.63 545.575 522.96 548.152 522.301C601.512 508.648 654.88 494.792 709.392 486.662C729.544 483.657 745.206 474.956 759.437 461.37C775.449 446.083 790.38 430.027 799.969 409.839C811.872 384.78 809.831 361.11 791.642 339.514C779.396 324.975 763.454 315.864 746.097 308.931C707.983 293.706 667.883 288.766 627.345 286.954C559.09 283.904 491.594 290.464 424.857 304.87C388.49 312.721 352.942 323.097 319.968 340.892C318.341 341.77 316.777 342.764 315.184 343.704C315.321 344.084 315.458 344.464 315.595 344.844C377.615 344.844 439.636 344.844 501.928 344.844C501.928 355.358 501.968 365.333 501.879 375.307C501.868 376.576 501.298 377.887 500.796 379.099C486.599 413.339 472.378 447.568 457.883 482.514ZM506.327 584.856C505.631 587.599 506.003 589.226 509.446 588.129C512.612 587.119 515.873 586.4 519.027 585.36C573.013 567.556 624.763 544.508 675.115 518.282C685.409 512.92 694.998 506.2 704.867 500.034C706.234 499.18 707.341 497.909 708.569 496.831C708.343 496.468 708.117 496.104 707.891 495.741C696.347 498.114 684.719 500.144 673.273 502.92C627.55 514.01 581.886 525.347 536.19 536.548C530.848 537.857 526.896 540.613 524.539 545.746C518.641 558.588 512.588 571.358 506.327 584.856ZM406.875 605.473C405.003 610.115 403.13 614.757 401.258 619.399C401.549 619.814 401.841 620.229 402.132 620.645C427.045 613.63 451.977 606.682 476.837 599.485C479.028 598.851 481.581 597.003 482.555 595.024C489.077 581.779 495.551 568.488 501.329 554.909C504.015 548.597 501.683 546.477 495.063 548.458C471.351 555.555 447.675 562.776 424.052 570.164C422.357 570.694 420.647 572.708 419.885 574.444C415.485 584.479 411.368 594.639 406.875 605.473ZM378.643 602.189C382.034 595.83 385.424 589.471 388.921 582.913C387.992 582.782 387.648 582.622 387.392 582.713C363.529 591.194 339.906 600.218 318.882 614.736C316.189 616.595 313.797 619.067 311.743 621.637C308.232 626.028 309.41 629.4 314.969 630.736C318.493 631.583 322.254 632.272 325.819 631.972C337.917 630.954 349.988 629.568 362.032 628.029C363.617 627.827 365.515 626.224 366.36 624.749C370.491 617.535 374.315 610.144 378.643 602.189Z"/>
</mask>
<path d="M455.558 617.483C436.594 622.167 418.04 626.831 399.407 631.155C395.999 631.946 395.008 634.048 393.912 636.693C371.643 690.446 349.295 744.166 327.154 797.971C325.622 801.694 323.87 802.879 319.91 802.819C303.784 802.574 287.652 802.717 270.606 802.717C300.155 747.838 329.363 693.594 358.966 638.614C348.639 639.592 339.093 640.412 329.566 641.421C319.828 642.452 310.26 641.834 300.917 638.828C290.634 635.518 287.432 626.528 294.277 618.157C298.309 613.227 303.503 608.99 308.832 605.426C332.738 589.441 359.725 580.169 386.675 571.064C394.491 568.424 399.28 564.302 403.15 556.988C427.422 511.121 452.211 465.527 476.82 419.837C477.583 418.42 478.247 416.95 479.176 415.057C477.931 414.906 477.176 414.733 476.422 414.733C402.423 414.761 328.424 414.685 254.427 415.009C246.235 415.045 237.892 416.741 229.902 418.778C214.841 422.618 207.162 433.828 203.946 448.179C201.701 458.202 200.571 468.476 198.879 479.035C197.338 479.035 195.435 479.035 193 479.035C194.509 434.315 196.012 389.762 197.532 344.695C199.721 344.695 201.51 344.695 203.299 344.695C230.798 344.695 258.298 344.728 285.797 344.634C288.029 344.626 290.617 344.321 292.433 343.185C325.899 322.248 362.857 310.259 400.835 301.083C472.434 283.782 545.118 275.618 618.764 277.191C659.144 278.053 699.336 281.699 738.062 294.097C752.242 298.637 765.986 304.852 779.398 311.392C792.722 317.889 803.557 327.824 812.486 339.776C827.957 360.483 829.925 382.708 820.195 406.276C812.361 425.25 799.288 440.588 785.641 455.491C781.253 460.283 776.609 464.84 772.184 469.599C770.694 471.202 769.521 473.099 768.204 474.862C768.453 475.356 768.703 475.85 768.952 476.344C771.792 476.105 774.663 476.053 777.468 475.599C836.618 466.019 896.237 461.782 956.061 459.933C960.349 459.801 964.756 460.06 968.919 460.985C970.647 461.369 971.881 463.981 973.339 465.579C971.487 466.636 969.615 468.651 967.786 468.612C907.755 467.344 848.425 474.883 789.114 482.632C777.893 484.098 766.666 485.675 755.564 487.827C750.943 488.723 746.161 490.545 742.264 493.157C674.943 538.289 601.02 569.393 524.897 595.858C518.929 597.933 512.919 599.9 506.874 601.738C499.965 603.838 494.902 608.026 491.5 614.371C459.184 674.642 426.878 734.919 394.408 795.107C393.151 797.438 390.529 799.978 388.103 800.549C381.834 802.025 379.009 798.68 380.617 792.347C381.261 789.807 382.34 787.32 383.573 784.995C411.478 732.371 439.446 679.781 467.348 627.156C469.503 623.093 471.262 618.82 473.204 614.644C472.906 614.117 472.607 613.589 472.309 613.061C466.853 614.49 461.397 615.919 455.558 617.483ZM457.883 482.514C447.704 507.109 437.525 531.704 426.995 557.146C437.813 553.841 447.45 550.775 457.159 547.959C471.371 543.836 485.649 539.943 499.87 535.85C507.083 533.774 512.72 529.682 515.776 522.551C533.789 480.507 551.376 438.296 565.682 394.802C566.665 391.812 567.825 388.847 569.231 386.035C571.413 381.672 575.542 382.138 579.304 382.814C583.106 383.498 584.309 386.546 583.794 390.029C583.116 394.61 582.673 399.368 581.06 403.647C567.279 440.204 553.256 476.67 539.306 513.163C538.417 515.489 537.388 517.774 536.683 520.155C535.729 523.375 536.765 525.099 540.409 524.24C542.999 523.63 545.575 522.96 548.152 522.301C601.512 508.648 654.88 494.792 709.392 486.662C729.544 483.657 745.206 474.956 759.437 461.37C775.449 446.083 790.38 430.027 799.969 409.839C811.872 384.78 809.831 361.11 791.642 339.514C779.396 324.975 763.454 315.864 746.097 308.931C707.983 293.706 667.883 288.766 627.345 286.954C559.09 283.904 491.594 290.464 424.857 304.87C388.49 312.721 352.942 323.097 319.968 340.892C318.341 341.77 316.777 342.764 315.184 343.704C315.321 344.084 315.458 344.464 315.595 344.844C377.615 344.844 439.636 344.844 501.928 344.844C501.928 355.358 501.968 365.333 501.879 375.307C501.868 376.576 501.298 377.887 500.796 379.099C486.599 413.339 472.378 447.568 457.883 482.514ZM506.327 584.856C505.631 587.599 506.003 589.226 509.446 588.129C512.612 587.119 515.873 586.4 519.027 585.36C573.013 567.556 624.763 544.508 675.115 518.282C685.409 512.92 694.998 506.2 704.867 500.034C706.234 499.18 707.341 497.909 708.569 496.831C708.343 496.468 708.117 496.104 707.891 495.741C696.347 498.114 684.719 500.144 673.273 502.92C627.55 514.01 581.886 525.347 536.19 536.548C530.848 537.857 526.896 540.613 524.539 545.746C518.641 558.588 512.588 571.358 506.327 584.856ZM406.875 605.473C405.003 610.115 403.13 614.757 401.258 619.399C401.549 619.814 401.841 620.229 402.132 620.645C427.045 613.63 451.977 606.682 476.837 599.485C479.028 598.851 481.581 597.003 482.555 595.024C489.077 581.779 495.551 568.488 501.329 554.909C504.015 548.597 501.683 546.477 495.063 548.458C471.351 555.555 447.675 562.776 424.052 570.164C422.357 570.694 420.647 572.708 419.885 574.444C415.485 584.479 411.368 594.639 406.875 605.473ZM378.643 602.189C382.034 595.83 385.424 589.471 388.921 582.913C387.992 582.782 387.648 582.622 387.392 582.713C363.529 591.194 339.906 600.218 318.882 614.736C316.189 616.595 313.797 619.067 311.743 621.637C308.232 626.028 309.41 629.4 314.969 630.736C318.493 631.583 322.254 632.272 325.819 631.972C337.917 630.954 349.988 629.568 362.032 628.029C363.617 627.827 365.515 626.224 366.36 624.749C370.491 617.535 374.315 610.144 378.643 602.189Z" fill="#FCFDFD" stroke="black" stroke-width="2" mask="url(#path-2-inside-1_0_1)"/>
</svg>
