<svg width="1079" height="1079" viewBox="0 0 1079 1079" fill="none" xmlns="http://www.w3.org/2000/svg">
<path d="M680 1080C453.026 1080 226.552 1080 0.0390625 1080C0.0390625 720.068 0.0390625 360.135 0.0390625 0.101562C359.891 0.101562 719.781 0.101562 1079.84 0.101562C1079.84 360 1079.84 720 1079.84 1080C946.801 1080 813.651 1080 680 1080ZM480.125 603.475C485.581 602.047 491.036 600.618 496.492 599.189C496.79 599.717 497.089 600.244 497.387 600.772C495.445 604.948 493.686 609.221 491.531 613.284C463.629 665.909 435.661 718.499 407.756 771.122C406.523 773.447 405.444 775.935 404.8 778.475C403.192 784.808 406.017 788.153 412.286 786.677C414.712 786.106 417.334 783.566 418.591 781.235C451.061 721.047 483.367 660.77 515.683 600.499C519.085 594.154 524.148 589.966 531.057 587.866C537.102 586.028 543.112 584.06 549.081 581.986C625.203 555.521 699.126 524.417 766.447 479.285C770.344 476.673 775.126 474.851 779.747 473.955C790.849 471.802 802.076 470.225 813.297 468.76C872.608 461.011 931.938 453.472 991.969 454.74C993.798 454.778 995.67 452.764 997.522 451.707C996.064 450.108 994.831 447.496 993.103 447.113C988.939 446.188 984.532 445.929 980.244 446.061C920.42 447.909 860.801 452.147 801.651 461.727C798.846 462.181 795.976 462.233 793.135 462.472C792.886 461.978 792.636 461.484 792.387 460.99C793.705 459.227 794.877 457.33 796.367 455.727C800.792 450.967 805.436 446.411 809.824 441.619C823.471 426.716 836.544 411.378 844.378 392.403C854.108 368.836 852.14 346.611 836.669 325.904C827.74 313.951 816.906 304.017 803.581 297.52C790.169 290.98 776.425 284.765 762.245 280.225C723.519 267.826 683.327 264.181 642.947 263.319C569.301 261.746 496.617 269.91 425.018 287.21C387.041 296.387 350.082 308.376 316.616 329.313C314.8 330.449 312.212 330.754 309.98 330.762C282.481 330.856 254.981 330.823 227.482 330.823C225.693 330.823 223.904 330.823 221.715 330.823C220.195 375.89 218.692 420.443 217.183 465.163C219.618 465.163 221.521 465.163 223.062 465.163C224.754 454.603 225.884 444.33 228.13 434.307C231.345 419.955 239.024 408.746 254.085 404.906C262.075 402.869 270.418 401.173 278.61 401.137C352.607 400.813 426.606 400.889 500.605 400.861C501.359 400.861 502.114 401.033 503.36 401.185C502.43 403.078 501.766 404.548 501.003 405.965C476.394 451.654 451.605 497.248 427.333 543.116C423.463 550.43 418.674 554.552 410.858 557.192C383.908 566.297 356.921 575.569 333.015 591.554C327.686 595.118 322.492 599.355 318.461 604.285C311.615 612.656 314.817 621.646 325.1 624.955C334.443 627.962 344.011 628.58 353.75 627.549C363.276 626.54 372.822 625.719 383.149 624.742C353.546 679.722 324.338 733.966 294.789 788.845C311.835 788.845 327.967 788.702 344.093 788.947C348.053 789.007 349.805 787.822 351.337 784.099C373.478 730.294 395.826 676.573 418.095 622.821C419.191 620.176 420.182 618.074 423.591 617.283C442.223 612.959 460.777 608.294 480.125 603.475Z" fill="#118080"/>
</svg>
